<svg width="45" height="45" viewBox="0 0 45 45" fill="none" xmlns="http://www.w3.org/2000/svg">
<mask id="mask0_114_78" style="mask-type:luminance" maskUnits="userSpaceOnUse" x="9" y="7" width="27" height="31">
<path d="M35.52 7.5H9.75V37.5H35.52V7.5Z" fill="white"/>
</mask>
<g mask="url(#mask0_114_78)">
<path d="M35.25 31.2675C34.9575 29.3775 34.2075 27.6675 33.135 26.235V18C33.135 12.21 28.425 7.5 22.635 7.5C16.845 7.5 12.135 12.21 12.135 18V26.235C11.0625 27.6675 10.3125 29.3775 10.02 31.275L9.75 33H12.135H33.135H35.52L35.25 31.2675ZM30.135 30H15.135H13.4475C13.8375 29.01 14.415 28.1175 15.135 27.36V23.4675V18C15.135 13.8675 18.5025 10.5 22.635 10.5C26.7675 10.5 30.135 13.8675 30.135 18V23.4675V27.36C30.855 28.1175 31.4325 29.01 31.8225 30H30.135Z" fill="white"/>
<path d="M25.6353 34.5C25.6353 35.295 25.3203 36.06 24.7578 36.6225C24.1953 37.185 23.4303 37.5 22.6353 37.5C21.8403 37.5 21.0753 37.185 20.5128 36.6225C19.9503 36.06 19.6353 35.295 19.6353 34.5H22.6353H25.6353Z" fill="white"/>
</g>
</svg>
