<svg width="20" height="20" viewBox="0 0 20 20" fill="none" xmlns="http://www.w3.org/2000/svg">
<g clip-path="url(#clip0_104_223)">
<path d="M14.1655 5.90877C14.4811 6.23044 14.4022 6.85686 14.0076 7.32525L7.31654 14.007C6.92759 14.402 6.2117 14.4867 5.90166 14.086C5.51271 13.7643 5.58599 13.1379 6.06514 12.6695L12.6717 6.06114C13.1395 5.59275 13.7765 5.51374 14.1655 5.90313V5.90877ZM18.3425 1.65934C16.5217 -0.14653 14.0133 -0.541564 12.6773 0.795907L9.13729 4.33428C8.27483 5.19771 8.35375 6.93022 8.90617 8.26769C9.29513 7.87266 9.76863 7.32525 10.2421 6.77221C10.3211 6.45618 10.2421 5.90877 10.4733 5.67175L14.0133 2.13338C14.7968 1.34331 16.3019 1.58033 17.4011 2.59613C18.5003 3.70223 18.7371 5.27672 17.9535 6.06114L14.4135 9.59952C14.1767 9.76318 13.6243 9.59952 13.3087 9.67853C12.7562 10.1469 12.2038 10.6266 11.8149 11.016C13.1508 11.569 14.7968 11.7271 15.6649 10.858L19.2106 7.31961C20.5465 6.0555 20.1519 3.45956 18.3481 1.6537L18.3425 1.65934ZM9.60516 14.4076L6.07077 17.867C5.2816 18.7361 3.70888 18.4201 2.68295 17.4043C1.5781 16.2982 1.34135 14.7293 2.13052 13.9392L5.67055 10.4009C5.90166 10.1639 6.69084 10.2372 7.00651 10.1639C7.55894 9.61081 8.11136 9.22142 8.50595 8.82638C7.08543 8.27333 5.20268 8.27333 4.33458 9.14241L0.788924 12.6808C-0.541403 13.9449 -0.152452 16.5408 1.66266 18.3467C3.47213 20.1526 6.07077 20.5476 7.40674 19.2158L10.8735 15.6774C11.8149 14.814 11.657 13.0815 11.1046 11.744C10.71 12.139 10.3211 12.6074 9.76863 13.1548C9.68971 13.5499 9.84191 14.1029 9.60516 14.4189V14.4076Z" fill="#595959"/>
</g>
<defs>
<clipPath id="clip0_104_223">
<rect width="20" height="20" fill="white"/>
</clipPath>
</defs>
</svg>
