<svg width="27" height="22" viewBox="0 0 27 22" fill="none" xmlns="http://www.w3.org/2000/svg">
<g clip-path="url(#clip0_106_696)">
<path d="M26.0075 17.8531C26.6554 16.6639 27 15.3184 27 13.9501C27 9.62786 23.1386 5.8316 18.7266 5.80111C17.1648 2.37838 13.7603 0 9.81648 0C4.40449 0 0 4.48233 0 9.98995C0 11.7128 0.434457 13.4012 1.26217 14.8954L0.0674157 18.8784C0.00374532 19.0918 0.0524345 19.3281 0.202247 19.492C0.348315 19.6597 0.573034 19.7322 0.790262 19.6902L5.21348 18.8098C6.62547 19.5721 8.20974 19.9761 9.81648 19.9761C11.015 19.9761 12.1648 19.755 13.2285 19.3548C14.7303 21.0395 16.8464 22 19.0861 22C20.3633 22 21.6255 21.6836 22.7528 21.0814L26.2135 21.7713C26.4307 21.8132 26.6517 21.737 26.8015 21.5731C26.9476 21.4054 27 21.1729 26.9363 20.9595L26.0037 17.8531H26.0075ZM5.62547 17.5825C5.53184 17.5291 5.42322 17.4986 5.31835 17.4986C5.27715 17.4986 5.23596 17.5024 5.1985 17.51L1.57678 18.2304L2.54682 14.9983C2.59925 14.8229 2.57678 14.6362 2.48315 14.4799C1.68165 13.1268 1.25843 11.5755 1.25843 9.98614C1.25843 5.18746 5.09738 1.28067 9.81648 1.28067C14.5356 1.28067 18.3745 5.18746 18.3745 9.98995C18.3745 14.7924 14.5356 18.6992 9.81648 18.6992C8.34832 18.6992 6.89888 18.3143 5.62547 17.5825ZM24.7266 17.9598L25.4307 20.3115L22.7753 19.7817C22.6292 19.7512 22.4757 19.7779 22.3483 19.8503C21.3558 20.4182 20.2285 20.7193 19.0899 20.7193C17.3408 20.7193 15.6816 20.0256 14.4457 18.7945C17.5318 17.1098 19.6367 13.7938 19.6367 9.98614C19.6367 8.98371 19.4906 8.01178 19.2172 7.10083C22.7528 7.39051 25.7453 10.4626 25.7453 13.9463C25.7453 15.1812 25.4157 16.3895 24.794 17.4414C24.7004 17.5977 24.6779 17.7845 24.7303 17.9598H24.7266Z" fill="#505051"/>
<path d="M6.14226 10.3481C5.76773 10.3481 5.46436 10.6569 5.46436 11.038C5.46436 11.4192 5.76773 11.7279 6.14226 11.7279C6.51679 11.7279 6.82016 11.4192 6.82016 11.038C6.82016 10.6569 6.51679 10.3481 6.14226 10.3481Z" fill="#505051"/>
<path d="M9.66667 10.3481C9.29214 10.3481 8.98877 10.6569 8.98877 11.038C8.98877 11.4192 9.29214 11.7279 9.66667 11.7279C10.0412 11.7279 10.3446 11.4192 10.3446 11.038C10.3446 10.6569 10.0412 10.3481 9.66667 10.3481Z" fill="#505051"/>
<path d="M13.1911 10.3481C12.8166 10.3481 12.5132 10.6569 12.5132 11.038C12.5132 11.4192 12.8166 11.7279 13.1911 11.7279C13.5656 11.7279 13.869 11.4192 13.869 11.038C13.869 10.6569 13.5656 10.3481 13.1911 10.3481Z" fill="#505051"/>
</g>
<defs>
<clipPath id="clip0_106_696">
<rect width="27" height="22" fill="white"/>
</clipPath>
</defs>
</svg>
