<svg width="45" height="46" viewBox="0 0 45 46" fill="none" xmlns="http://www.w3.org/2000/svg">
<path fill-rule="evenodd" clip-rule="evenodd" d="M30.75 15.2246H12V16.7246C12 21.6952 16.0294 25.7246 21 25.7246H21.75C26.7206 25.7246 30.75 21.6952 30.75 16.7246V15.2246ZM9 12.2246V16.7246C9 23.3521 14.3726 28.7246 21 28.7246H21.75C28.3775 28.7246 33.75 23.3521 33.75 16.7246V12.2246H9Z" fill="white"/>
<path fill-rule="evenodd" clip-rule="evenodd" d="M33.75 15.2246V18.2246C34.5784 18.2246 35.25 17.5531 35.25 16.7246C35.25 15.8962 34.5784 15.2246 33.75 15.2246ZM33.75 12.2246H30.75V21.2246H33.75C36.2353 21.2246 38.25 19.2099 38.25 16.7246C38.25 14.2393 36.2353 12.2246 33.75 12.2246Z" fill="white"/>
<path fill-rule="evenodd" clip-rule="evenodd" d="M34.5 33.2246H9V30.2246H34.5V33.2246Z" fill="white"/>
</svg>
