<svg width="72" height="84" viewBox="0 0 72 84" fill="none" xmlns="http://www.w3.org/2000/svg">
<g clip-path="url(#clip0_1857_2)">
<path d="M9 80V4C9 2.3431 10.3431 1 12 1H51.7574C52.553 1 53.3161 1.31607 53.8787 1.87868L70.1213 18.1213C70.6839 18.6839 71 19.447 71 20.2426V80C71 81.6569 69.6569 83 68 83H12C10.3431 83 9 81.6569 9 80Z" fill="white" stroke="#373737" stroke-width="1.75"/>
<path d="M52 1V17C52 18.6569 53.3431 20 55 20H71" stroke="#373737" stroke-width="1.75"/>
<path fill-rule="evenodd" clip-rule="evenodd" d="M38.5333 15C37.192 15 36.0889 16.1031 36.0889 17.4444C36.0889 19.1119 37.0154 21.182 37.991 23.1278C37.2284 25.515 36.363 28.0732 35.2562 30.2319C34.8554 30.3892 34.4622 30.5394 34.0798 30.6854C32.3012 31.3646 30.7559 31.9547 29.7563 32.7604C29.7373 32.7798 29.7195 32.8002 29.7028 32.8215C29.2589 33.2754 29 33.8934 29 34.5556C29 35.8969 30.1031 37 31.4444 37C32.0985 37 32.7299 36.7559 33.1861 36.2896C33.2019 36.2775 33.2172 36.2647 33.2319 36.2514C34.126 35.1838 35.1802 33.2472 36.1194 31.4771C38.2842 30.6255 40.553 29.759 42.7424 29.2389C44.3406 30.5269 46.6528 31.3778 48.5556 31.3778C49.8969 31.3778 51 30.2747 51 28.9333C51 27.592 49.8969 26.4889 48.5556 26.4889C47.0296 26.4889 44.8122 27.0336 43.1167 27.6042C41.7424 26.314 40.4797 24.7027 39.5722 22.9903C39.6703 22.6881 39.7709 22.3859 39.8709 22.0853C40.4323 20.3985 40.9778 18.7597 40.9778 17.4444C40.9778 16.1031 39.8747 15 38.5333 15ZM38.5334 16.4665C39.0821 16.4665 39.5112 16.8956 39.5112 17.4443C39.5112 18.1779 39.1183 19.5288 38.6633 20.9811C38.0552 19.5683 37.5556 18.2128 37.5556 17.4443C37.5556 16.8956 37.9847 16.4665 38.5334 16.4665ZM41.4896 28.0549C40.5498 27.0889 39.6887 26.0007 38.9535 24.8313C38.4421 26.3875 37.9019 27.9679 37.2271 29.491C38.6242 28.9592 40.04 28.4513 41.4896 28.0549ZM48.5554 27.9556C49.1041 27.9556 49.5332 28.3847 49.5332 28.9334C49.5332 29.4821 49.1041 29.9112 48.5554 29.9112C47.4539 29.9112 45.8883 29.4139 44.6367 28.7195C46.0733 28.3133 47.6409 27.9556 48.5554 27.9556ZM32.1165 35.2813C32.5944 34.705 33.2777 33.5597 33.9651 32.3327C32.5472 32.9002 31.2996 33.432 30.7262 33.8758C30.5762 34.041 30.4665 34.2974 30.4665 34.5556C30.4665 35.1043 30.8956 35.5334 31.4443 35.5334C31.7361 35.5334 31.9532 35.4374 32.1165 35.2813Z" fill="#373737"/>
<path d="M46 44H2C0.89543 44 0 44.8954 0 46V64C0 65.1046 0.89543 66 2 66H46C47.1046 66 48 65.1046 48 64V46C48 44.8954 47.1046 44 46 44Z" fill="#DA5E5C"/>
<path d="M16.2761 52.2326C16.2761 53.6945 15.797 54.8149 14.8387 55.5937C13.8804 56.3725 12.5165 56.762 10.7469 56.762H9.2903V62H7V48H11.0343C12.7848 48 14.0944 48.3575 14.9633 49.0725C15.8385 49.7875 16.2761 50.8409 16.2761 52.2326ZM9.2903 54.8372H10.5073C11.6828 54.8372 12.5452 54.6329 13.0946 54.2244C13.644 53.8158 13.9187 53.1774 13.9187 52.3092C13.9187 51.5048 13.6728 50.9047 13.1809 50.5089C12.689 50.1131 11.9223 49.9152 10.881 49.9152H9.2903V54.8372Z" fill="white"/>
<path d="M30.2689 54.8659C30.2689 57.1769 29.6269 58.9453 28.3428 60.171C27.0587 61.3903 25.2092 62 22.7944 62H18.875V48H23.2064C25.436 48 27.1705 48.6001 28.4099 49.8003C29.6492 51.0005 30.2689 52.689 30.2689 54.8659ZM27.8541 54.9425C27.8541 51.591 26.2857 49.9152 23.1489 49.9152H21.1653V60.0752H22.7944C26.1675 60.0752 27.8541 58.3643 27.8541 54.9425Z" fill="white"/>
<path d="M35.3648 62H33.0938V48H40.9995V49.9343H35.3648V54.3105H40.645V56.2544H35.3648V62Z" fill="white"/>
</g>
<defs>
<clipPath id="clip0_1857_2">
<rect width="72" height="84" fill="white"/>
</clipPath>
</defs>
</svg>
