<svg width="72" height="84" viewBox="0 0 72 84" fill="none" xmlns="http://www.w3.org/2000/svg">
<g clip-path="url(#clip0_1857_18)">
<path d="M15 81V5C15 3.3431 16.3431 2 18 2H57.7574C58.553 2 59.3161 2.31607 59.8787 2.87868L76.1213 19.1213C76.6839 19.6839 77 20.447 77 21.2426V81C77 82.6569 75.6569 84 74 84H18C16.3431 84 15 82.6569 15 81Z" fill="white" stroke="#373737" stroke-width="1.75"/>
<path d="M52 1V17C52 18.6569 53.3431 20 55 20H71" stroke="#373737" stroke-width="1.75"/>
<path fill-rule="evenodd" clip-rule="evenodd" d="M59 34C59 34.5523 58.5523 35 58 35H20C19.4477 35 19 34.5523 19 34C19 33.4477 19.4477 33 20 33H58C58.5523 33 59 33.4477 59 34Z" fill="#292C32"/>
<path fill-rule="evenodd" clip-rule="evenodd" d="M59 46C59 46.5523 58.5523 47 58 47H20C19.4477 47 19 46.5523 19 46C19 45.4477 19.4477 45 20 45H58C58.5523 45 59 45.4477 59 46Z" fill="#292C32"/>
<path fill-rule="evenodd" clip-rule="evenodd" d="M59 58C59 58.5523 58.5523 59 58 59H20C19.4477 59 19 58.5523 19 58C19 57.4477 19.4477 57 20 57H58C58.5523 57 59 57.4477 59 58Z" fill="#292C32"/>
<path d="M36 26H4C1.79086 26 0 27.7909 0 30V62C0 64.2091 1.79086 66 4 66H36C38.2091 66 40 64.2091 40 62V30C40 27.7909 38.2091 26 36 26Z" fill="#1F48A0"/>
<path d="M28.0405 56L35 36H32.542L26.9151 53.3429L21.229 36L18.8598 36.0286L13.233 53.3429L7.5469 36H5L11.9299 56H14.3583L20.0148 39.1429L25.612 56H28.0405Z" fill="white"/>
</g>
<defs>
<clipPath id="clip0_1857_18">
<rect width="72" height="84" fill="white"/>
</clipPath>
</defs>
</svg>
