<svg width="15" height="16" viewBox="0 0 15 16" fill="none" xmlns="http://www.w3.org/2000/svg">
<path d="M6.94088 15.5H8.11237C8.13312 15.4484 8.1793 15.4722 8.21336 15.4687C8.8948 15.3971 9.5649 15.2645 10.1955 14.9957C13.1193 13.7503 14.7315 11.54 14.9805 8.37201C15.0752 7.1681 14.8208 6.00997 14.3241 4.90544C12.7839 1.48073 8.84196 -0.317504 5.27308 0.861365C2.34259 1.82934 0.616863 3.89481 0.0786743 6.94078C0.0489273 7.1098 0.058712 7.28469 0 7.44941V8.62046C0.0516663 8.6412 0.027791 8.68736 0.0313139 8.7214C0.124861 9.63069 0.351878 10.5056 0.773428 11.317C1.97349 13.6255 3.85852 15.0015 6.43283 15.4241C6.60192 15.4519 6.77649 15.4429 6.94088 15.5ZM5.81362 14.7856C4.24093 14.3888 2.96493 13.541 1.94374 12.2514C2.75749 12.2514 3.54109 12.2525 4.32469 12.2498C4.41159 12.2498 4.4108 12.3112 4.4292 12.3629C4.74742 13.2499 5.1674 14.0766 5.83828 14.7562C5.85237 14.7664 5.86646 14.7766 5.88016 14.7867C5.85785 14.8039 5.83554 14.7977 5.81362 14.7856ZM9.18092 14.7852L9.1453 14.7895C9.14883 14.7785 9.15235 14.768 9.15548 14.757C9.22476 14.6819 9.29522 14.6083 9.36254 14.5316C9.9066 13.9111 10.2694 13.1884 10.5395 12.4165C10.5865 12.2819 10.6491 12.2463 10.7857 12.2478C11.4926 12.2553 12.1995 12.251 12.9064 12.2525C12.9459 12.2525 12.9921 12.2318 13.0328 12.2752C12.0269 13.5413 10.752 14.3896 9.18092 14.7852ZM5.81401 1.22485C5.83593 1.21272 5.85785 1.20646 5.88016 1.22367C5.86607 1.23384 5.85237 1.24402 5.83828 1.25419C5.769 1.32931 5.69854 1.40287 5.63122 1.47956C5.0899 2.09579 4.7302 2.81493 4.45856 3.58063C4.4108 3.71561 4.35836 3.76569 4.20805 3.76374C3.50117 3.75356 2.79428 3.75982 2.08739 3.75826C2.04786 3.75826 2.00167 3.77939 1.96175 3.73518C2.96807 2.46945 4.24289 1.6208 5.81401 1.22563V1.22485ZM9.18131 1.22524C10.7544 1.62158 12.03 2.46984 13.0508 3.75904C12.241 3.75904 11.4625 3.75748 10.6835 3.76139C10.592 3.76178 10.5857 3.70544 10.5646 3.64675C10.2471 2.75937 9.82636 1.93264 9.15587 1.25341C9.15235 1.24245 9.14922 1.23189 9.1457 1.22093L9.18131 1.22524ZM12.87 7.75421C12.3725 7.75421 11.875 7.75069 11.3779 7.75695C11.2703 7.75851 11.2405 7.7323 11.2382 7.62274C11.2131 6.52839 11.071 5.44968 10.7881 4.39093C10.7587 4.28138 10.7787 4.25438 10.8965 4.25516C11.6863 4.26064 12.4762 4.25986 13.2661 4.25594C13.3647 4.25555 13.4195 4.28451 13.4716 4.37058C14.0779 5.37769 14.4168 6.46579 14.483 7.63996C14.4892 7.75264 14.4454 7.75538 14.3624 7.75499C13.8649 7.75303 13.3678 7.75421 12.8704 7.75421H12.87ZM2.12888 7.75421C1.6267 7.75421 1.12452 7.75303 0.622344 7.75538C0.538973 7.75577 0.498266 7.74482 0.512748 7.64348C0.536624 7.47993 0.53819 7.31326 0.558152 7.14932C0.681446 6.13478 1.01806 5.19497 1.55194 4.32402C1.5856 4.26886 1.62279 4.25712 1.68111 4.25712C2.49524 4.25868 3.30977 4.26025 4.1239 4.25555C4.22997 4.25477 4.23193 4.29233 4.21158 4.37332C4.15247 4.60886 4.09024 4.8444 4.04131 5.08229C3.87027 5.91411 3.77437 6.75532 3.75871 7.60435C3.75637 7.74012 3.71018 7.75851 3.59158 7.75695C3.10388 7.75069 2.61658 7.75421 2.12888 7.75421ZM12.8414 8.2562C13.3487 8.2562 13.8555 8.2562 14.3628 8.2562C14.4313 8.2562 14.4904 8.24172 14.4838 8.35675C14.4172 9.54618 14.0763 10.6484 13.4551 11.6649C13.4136 11.7329 13.3714 11.7541 13.2946 11.7541C12.4899 11.7513 11.6856 11.7502 10.8808 11.7549C10.7755 11.7556 10.7599 11.7247 10.7845 11.6328C11.071 10.5646 11.2127 9.47615 11.239 8.37201C11.2413 8.27498 11.2714 8.25306 11.3638 8.25385C11.8562 8.25854 12.3486 8.2558 12.8414 8.2558V8.2562ZM4.23506 11.7525H4.08985C3.29998 11.7525 2.51012 11.7505 1.72025 11.7552C1.62475 11.7556 1.57464 11.7263 1.5265 11.6457C0.926469 10.6472 0.583985 9.57083 0.515489 8.40605C0.508052 8.27967 0.533885 8.25346 0.656396 8.25385C1.64118 8.25893 2.62636 8.25893 3.61115 8.25385C3.72584 8.25346 3.75441 8.28515 3.75715 8.39666C3.77868 9.2993 3.87888 10.1933 4.0738 11.0756C4.12312 11.2982 4.17909 11.5189 4.23506 11.7525ZM7.74875 6.0041C7.74875 5.46298 7.75032 4.92187 7.74719 4.38036C7.7468 4.29311 7.75736 4.25477 7.86187 4.25555C8.61299 4.26064 9.3641 4.25986 10.1152 4.25594C10.1998 4.25555 10.2303 4.28177 10.2526 4.36158C10.5516 5.42699 10.7098 6.51235 10.7442 7.61766C10.7477 7.72565 10.7258 7.75734 10.6123 7.75695C9.70033 7.75186 8.78795 7.75264 7.87596 7.75655C7.77419 7.75695 7.74484 7.73151 7.74562 7.62783C7.75071 7.08672 7.74797 6.5456 7.74797 6.0041H7.74875ZM7.24618 5.99353C7.24618 6.52995 7.24266 7.06637 7.24892 7.6024C7.25049 7.72056 7.22544 7.75812 7.0994 7.75734C6.1972 7.75147 5.29461 7.75225 4.39241 7.75655C4.27968 7.75695 4.24602 7.73269 4.24994 7.61374C4.28634 6.51352 4.44133 5.43247 4.73959 4.37215C4.76346 4.28764 4.79047 4.25555 4.88363 4.25594C5.63005 4.26025 6.37608 4.26064 7.1225 4.25594C7.22661 4.25516 7.2497 4.28451 7.24853 4.38467C7.24344 4.92109 7.24618 5.45711 7.24618 5.99353ZM7.74875 10.0094C7.74875 9.47302 7.75188 8.9366 7.7464 8.40057C7.74523 8.28945 7.76911 8.25267 7.88849 8.25346C8.79577 8.25893 9.70306 8.25815 10.61 8.25385C10.718 8.25346 10.7485 8.27654 10.745 8.38961C10.7098 9.49493 10.5528 10.5807 10.2534 11.6457C10.2319 11.7228 10.206 11.7549 10.1184 11.7545C9.36723 11.7505 8.61612 11.7502 7.865 11.7545C7.76637 11.7549 7.74601 11.7255 7.7468 11.6328C7.7511 11.0917 7.74875 10.5505 7.74875 10.009V10.0094ZM7.24618 9.99965C7.24618 10.5459 7.24462 11.0917 7.24775 11.6379C7.24814 11.7208 7.23679 11.7552 7.13972 11.7549C6.3839 11.7502 5.6277 11.7513 4.8715 11.7541C4.794 11.7541 4.76425 11.7302 4.74311 11.6555C4.44368 10.5854 4.2836 9.49493 4.24994 8.38492C4.2468 8.28319 4.27029 8.25346 4.37479 8.25424C5.28678 8.25815 6.19916 8.25854 7.11114 8.25424C7.22074 8.25385 7.2497 8.28163 7.24814 8.39118C7.24227 8.9276 7.2454 9.46363 7.2454 10L7.24618 9.99965ZM10.0557 3.75904C9.30383 3.75904 8.57189 3.75826 7.84034 3.76022C7.77302 3.76022 7.74719 3.74535 7.74719 3.67218C7.74954 2.82354 7.74914 1.97489 7.74758 1.12625C7.74758 1.05504 7.76049 1.03548 7.83878 1.05426C8.13429 1.12625 8.39301 1.26788 8.62003 1.4643C9.3277 2.07584 9.72185 2.88457 10.0553 3.75865L10.0557 3.75904ZM4.94234 3.75904C4.96974 3.68549 4.99009 3.6268 5.01279 3.56928C5.29696 2.84858 5.64962 2.16935 6.20699 1.61572C6.46688 1.35787 6.76396 1.16264 7.12093 1.06247C7.23013 1.03156 7.24892 1.05856 7.24853 1.1642C7.24462 1.9882 7.24422 2.81258 7.24892 3.63697C7.2497 3.74457 7.21409 3.76256 7.11702 3.76139C6.59996 3.75669 6.08291 3.75904 5.56546 3.75904C5.36232 3.75904 5.15957 3.75904 4.94234 3.75904ZM10.0561 12.2514C9.98762 12.4231 9.93243 12.5734 9.86863 12.7197C9.60012 13.3348 9.27447 13.9138 8.79147 14.3908C8.52414 14.6549 8.22079 14.8587 7.85013 14.9522C7.77498 14.971 7.7464 14.971 7.7468 14.881C7.74954 14.0324 7.74875 13.1837 7.74758 12.3351C7.74758 12.2748 7.76206 12.2498 7.82821 12.2498C8.56406 12.2518 9.3003 12.251 10.0561 12.251V12.2514ZM4.93921 12.2514C5.6915 12.2514 6.42305 12.2521 7.15498 12.2502C7.22309 12.2502 7.24775 12.2654 7.24775 12.3386C7.2454 13.1873 7.24579 14.0359 7.24736 14.8845C7.24736 14.9565 7.23366 14.9749 7.15577 14.9558C6.86025 14.8838 6.60153 14.7417 6.37451 14.5457C5.66684 13.9342 5.27308 13.1254 4.9396 12.2518L4.93921 12.2514Z" fill="white"/>
</svg>
