<svg width="45" height="46" viewBox="0 0 45 46" fill="none" xmlns="http://www.w3.org/2000/svg">
<mask id="mask0_114_24" style="mask-type:luminance" maskUnits="userSpaceOnUse" x="7" y="11" width="31" height="23">
<path d="M37.5 11.4746H7.5V33.9746H37.5V11.4746Z" fill="white"/>
</mask>
<g mask="url(#mask0_114_24)">
<path d="M36.225 20.4746L33.9975 15.2246H30V11.4746H7.5V29.4746H10.5C10.5 31.9571 12.5175 33.9746 15 33.9746C17.4825 33.9746 19.5 31.9571 19.5 29.4746H25.5C25.5 31.9571 27.5175 33.9746 30 33.9746C32.4825 33.9746 34.5 31.9571 34.5 29.4746H37.5V23.4746L36.225 20.4746ZM32.0175 18.2246L32.97 20.4746H30V18.2246H32.0175ZM15 30.9746C14.175 30.9746 13.5 30.2996 13.5 29.4746C13.5 28.6496 14.175 27.9746 15 27.9746C15.825 27.9746 16.5 28.6496 16.5 29.4746C16.5 30.2996 15.825 30.9746 15 30.9746ZM18.345 26.4746C17.52 25.5596 16.3275 24.9746 15 24.9746C13.6725 24.9746 12.48 25.5596 11.655 26.4746H10.5V14.4746H27V15.2246V20.4746V23.4746V26.1296C26.88 26.2421 26.76 26.3546 26.655 26.4746H18.345ZM30 30.9746C29.175 30.9746 28.5 30.2996 28.5 29.4746C28.5 28.6496 29.175 27.9746 30 27.9746C30.825 27.9746 31.5 28.6496 31.5 29.4746C31.5 30.2996 30.825 30.9746 30 30.9746ZM34.5 26.4746H33.345C32.52 25.5596 31.3275 24.9746 30 24.9746V23.4746H34.5V26.4746Z" fill="white"/>
</g>
</svg>
