<svg width="22" height="27" viewBox="0 0 22 27" fill="none" xmlns="http://www.w3.org/2000/svg">
<g clip-path="url(#clip0_106_722)">
<path d="M21.8445 4.9291L17.5669 0.205778C17.4503 0.0765686 17.2802 0 17.1003 0H0.627044C0.281927 0 0 0.277561 0 0.617334V26.3827C0 26.7224 0.281927 27 0.627044 27H21.3778C21.7229 27 22.0049 26.7224 22.0049 26.3827V5.33587C22.0049 5.18274 21.9465 5.03917 21.8445 4.92432V4.9291ZM17.8294 2.3497L20.0703 4.82861H17.8294V2.3497ZM1.24923 25.7653V1.22988H16.5753V5.44116C16.5753 5.78093 16.8573 6.05849 17.2024 6.05849H20.7459V25.7701H1.24923V25.7653Z" fill="#505051"/>
<path d="M17.7273 8.11157H4.06845C3.72333 8.11157 3.44141 8.38913 3.44141 8.72891C3.44141 9.06868 3.72333 9.34624 4.06845 9.34624H17.7273C18.0724 9.34624 18.3544 9.06868 18.3544 8.72891C18.3544 8.38913 18.0724 8.11157 17.7273 8.11157Z" fill="#505051"/>
<path d="M17.7273 13.0645H4.06845C3.72333 13.0645 3.44141 13.342 3.44141 13.6818C3.44141 14.0216 3.72333 14.2991 4.06845 14.2991H17.7273C18.0724 14.2991 18.3544 14.0216 18.3544 13.6818C18.3544 13.342 18.0724 13.0645 17.7273 13.0645Z" fill="#505051"/>
<path d="M17.7273 18.5535H4.06845C3.72333 18.5535 3.44141 18.831 3.44141 19.1708C3.44141 19.5106 3.72333 19.7881 4.06845 19.7881H17.7273C18.0724 19.7881 18.3544 19.5106 18.3544 19.1708C18.3544 18.831 18.0724 18.5535 17.7273 18.5535Z" fill="#505051"/>
</g>
<defs>
<clipPath id="clip0_106_722">
<rect width="22" height="27" fill="white"/>
</clipPath>
</defs>
</svg>
