<svg width="24" height="24" viewBox="0 0 24 24" fill="none" xmlns="http://www.w3.org/2000/svg">
<path d="M22.9538 6.01734C22.9149 5.97832 22.8673 5.95231 22.8197 5.93064L23.3301 5.41908C23.8491 4.89884 24.0783 4.15318 23.9659 3.32514C23.8621 2.54046 23.4642 1.76879 22.8457 1.14884C22.1191 0.42052 21.1805 0 20.2766 0C19.6148 0 19.0093 0.234104 18.5854 0.663295L18.0578 1.1922L18.0102 1.14451C17.8372 0.971098 17.5517 0.971098 17.3787 1.14451L15.8563 2.67052C15.7741 2.75289 15.7266 2.86994 15.7266 2.98699C15.7266 3.10405 15.7741 3.2211 15.8563 3.30347L15.8736 3.32081L10.2985 8.90462L10.2812 8.88728C10.1082 8.71387 9.82278 8.71387 9.64978 8.88728L1.15528 17.4147C0.982272 17.5882 0.982272 17.8743 1.15528 18.0477L1.30233 18.1951L0.316206 21.4725C0.272955 21.6156 0.307556 21.7717 0.402708 21.8844L0.0134492 23.4408C-0.0254768 23.5925 0.0220994 23.7529 0.130227 23.8656C0.216729 23.9523 0.329182 23.9957 0.445959 23.9957C0.48056 23.9957 0.519486 23.9957 0.554087 23.9827L2.11112 23.5925C2.1933 23.6575 2.28845 23.7009 2.39226 23.7009C2.43551 23.7009 2.47876 23.6965 2.52201 23.6835L5.78746 22.6951L5.86964 22.7775C5.95182 22.8598 6.06859 22.9075 6.18537 22.9075C6.30215 22.9075 6.41893 22.8598 6.5011 22.7775L15.0043 14.2543C15.0778 14.1806 15.1167 14.0853 15.1254 13.9855L15.8606 14.7225C15.9471 14.8092 16.0639 14.8526 16.1764 14.8526C16.2888 14.8526 16.4056 14.8092 16.4921 14.7225L23.7453 7.45231C23.9183 7.2789 23.9183 6.99277 23.7453 6.81936L22.9538 6.02601V6.01734ZM19.2256 1.30058C19.5586 0.966763 19.9868 0.897399 20.2852 0.897399C20.9426 0.897399 21.6649 1.22688 22.2185 1.78613C22.6986 2.26734 23.0057 2.85694 23.0835 3.44653C23.1571 3.99277 23.0187 4.46965 22.6986 4.79046L22.171 5.31936L18.6936 1.83381L19.2212 1.30491L19.2256 1.30058ZM17.7031 2.09827C17.7031 2.09827 17.7247 2.13728 17.7377 2.15462L21.773 6.20376L20.8907 7.08815L16.8078 2.99566L17.6988 2.1026L17.7031 2.09827ZM10.943 9.54624L16.4661 4.01012L19.9435 7.49567L14.4204 13.0318L12.6687 11.276L10.943 9.54624ZM1.13798 22.6301L1.36721 22.8598L1.06445 22.9335L1.13798 22.6301ZM2.52201 22.7514L1.25043 21.4769L2.0203 18.9191L5.07382 21.9798L2.52201 22.7514ZM6.1897 21.8237L2.1241 17.7486L2.1068 17.7312L9.97849 9.84538L12.0372 11.909L14.0614 13.9379L6.1897 21.8237ZM16.1807 13.7688L16.0207 13.6084L22.6424 6.9711L22.8024 7.1315L16.1807 13.7688Z" fill="#505051"/>
</svg>
