<svg width="45" height="46" viewBox="0 0 45 46" fill="none" xmlns="http://www.w3.org/2000/svg">
<mask id="mask0_114_100" style="mask-type:luminance" maskUnits="userSpaceOnUse" x="9" y="9" width="27" height="28">
<path d="M36 9.22461H9V36.2246H36V9.22461Z" fill="white"/>
</mask>
<g mask="url(#mask0_114_100)">
<path d="M9 9.22461V36.2246H33.24H36V34.9646V9.22461H9ZM12 33.2246V28.6496L17.16 24.0671L23.0775 30.3596L27.3675 27.1421L31.305 33.2246H12ZM28.1325 22.8071L23.4225 26.3396L17.34 19.8821L12 24.6371V12.2246H33V30.3296L28.1325 22.8071Z" fill="white"/>
<path fill-rule="evenodd" clip-rule="evenodd" d="M27.75 18.2246C28.1625 18.2246 28.5 17.8871 28.5 17.4746C28.5 17.0621 28.1625 16.7246 27.75 16.7246C27.3375 16.7246 27 17.0621 27 17.4746C27 17.8871 27.3375 18.2246 27.75 18.2246ZM27.75 21.2246C29.82 21.2246 31.5 19.5446 31.5 17.4746C31.5 15.4046 29.82 13.7246 27.75 13.7246C25.68 13.7246 24 15.4046 24 17.4746C24 19.5446 25.68 21.2246 27.75 21.2246Z" fill="white"/>
</g>
</svg>
