<svg width="12" height="20" viewBox="0 0 12 20" fill="none" xmlns="http://www.w3.org/2000/svg">
<g clip-path="url(#clip0_106_17)">
<path d="M5.99861 12.176C4.10893 12.176 2.57031 10.6089 2.57031 8.68436V3.49162C2.57031 1.56704 4.10893 0 5.99861 0C7.88829 0 9.42691 1.56704 9.42691 3.49162V8.68436C9.42691 10.6089 7.88829 12.176 5.99861 12.176ZM5.99861 0.558659C4.41062 0.558659 3.11884 1.8743 3.11884 3.49162V8.68436C3.11884 10.3017 4.41062 11.6173 5.99861 11.6173C7.5866 11.6173 8.87838 10.3017 8.87838 8.68436V3.49162C8.87838 1.8743 7.5866 0.558659 5.99861 0.558659Z" fill="white"/>
<path d="M5.99856 14.6565C2.85001 14.6565 0.285645 12.0447 0.285645 8.83524C0.285645 8.68161 0.409063 8.55591 0.559908 8.55591C0.710753 8.55591 0.834172 8.68161 0.834172 8.83524C0.834172 11.7347 3.1517 14.095 5.99856 14.095C8.84542 14.095 11.1629 11.7347 11.1629 8.83524C11.1629 8.68161 11.2864 8.55591 11.4372 8.55591C11.5881 8.55591 11.7115 8.68161 11.7115 8.83524C11.7115 12.0447 9.14711 14.6537 5.99856 14.6537V14.6565Z" fill="white"/>
<path d="M5.99838 20C5.84754 20 5.72412 19.8743 5.72412 19.7207V14.3771C5.72412 14.2235 5.84754 14.0978 5.99838 14.0978C6.14923 14.0978 6.27265 14.2235 6.27265 14.3771V19.7207C6.27265 19.8743 6.14923 20 5.99838 20Z" fill="white"/>
<path d="M9.70136 19.9999H2.29624C2.14539 19.9999 2.02197 19.8742 2.02197 19.7206C2.02197 19.567 2.14539 19.4413 2.29624 19.4413H9.70136C9.8522 19.4413 9.97562 19.567 9.97562 19.7206C9.97562 19.8742 9.8522 19.9999 9.70136 19.9999Z" fill="white"/>
</g>
<defs>
<clipPath id="clip0_106_17">
<rect width="11.4286" height="20" fill="white" transform="translate(0.285645)"/>
</clipPath>
</defs>
</svg>
