<svg width="45" height="46" viewBox="0 0 45 46" fill="none" xmlns="http://www.w3.org/2000/svg">
<mask id="mask0_114_87" style="mask-type:luminance" maskUnits="userSpaceOnUse" x="9" y="8" width="27" height="29">
<path d="M36 8.47461H9V36.9746H36V8.47461Z" fill="white"/>
</mask>
<g mask="url(#mask0_114_87)">
<path d="M33 15.9746H28.5V14.4746C28.5 11.1596 25.815 8.47461 22.5 8.47461C19.185 8.47461 16.5 11.1596 16.5 14.4746V15.9746H12L9 36.9746H36L33 15.9746ZM19.5 14.4746C19.5 12.8171 20.8425 11.4746 22.5 11.4746C24.1575 11.4746 25.5 12.8171 25.5 14.4746V15.9746H19.5V14.4746ZM12.4575 33.9746L14.6025 18.9746H16.5V23.4746H19.5V20.4746V18.9746H25.5V20.4746V23.4746H28.5V18.9746H30.3975L32.5425 33.9746H12.4575Z" fill="white"/>
</g>
</svg>
