<svg width="45" height="46" viewBox="0 0 45 46" fill="none" xmlns="http://www.w3.org/2000/svg">
<mask id="mask0_114_72" style="mask-type:luminance" maskUnits="userSpaceOnUse" x="9" y="9" width="27" height="28">
<path d="M36 9.22461H9V36.2246H36V9.22461Z" fill="white"/>
</mask>
<g mask="url(#mask0_114_72)">
<path d="M30.5188 28.6231C32.1052 26.5855 33.0602 24.0291 33.0602 21.2547C33.0602 14.6231 27.6616 9.22461 21.0301 9.22461C14.3985 9.22461 9 14.6231 9 21.2547C9 27.8863 14.3985 33.2848 21.0301 33.2848C23.8045 33.2848 26.3609 32.3299 28.3985 30.7434L33.8797 36.2246L36.0075 34.0968L30.5188 28.6231ZM21.0301 30.2773C16.0526 30.2773 12.0075 26.2321 12.0075 21.2547C12.0075 16.2772 16.0526 12.2321 21.0301 12.2321C26.0075 12.2321 30.0527 16.2772 30.0527 21.2547C30.0527 23.2021 29.4286 24.9991 28.3759 26.4727C27.7894 27.2923 27.0752 28.0141 26.2481 28.6006C24.7745 29.6532 22.9775 30.2773 21.0301 30.2773Z" fill="white"/>
</g>
</svg>
