<svg width="22" height="18" viewBox="0 0 22 18" fill="none" xmlns="http://www.w3.org/2000/svg">
<path d="M20.7445 12.9823H13.8337C13.6653 12.9823 13.5275 12.8481 13.5275 12.6841C13.5275 12.5201 13.6653 12.3859 13.8337 12.3859H20.5761C21.0599 11.5599 21.3875 9.86029 21.3875 8.75701C21.3875 5.97496 19.1278 3.71175 16.3475 3.71175C15.9525 3.71175 15.5392 3.76542 15.1258 3.8668C14.985 3.90258 14.8411 3.83698 14.7768 3.71175C13.898 2.00912 12.168 0.950563 10.2604 0.950563C7.82005 0.950563 5.71956 2.69196 5.2664 5.08935C5.23578 5.25037 5.07962 5.35474 4.91427 5.33088C4.69688 5.2951 4.50091 5.27721 4.3172 5.27721C2.27489 5.27721 0.612255 6.94108 0.612255 8.98662C0.612255 10.069 1.02562 11.6971 1.58901 12.3829H8.32221C8.49061 12.3829 8.6284 12.5171 8.6284 12.6811C8.6284 12.8451 8.49061 12.9793 8.32221 12.9793H1.45122C1.36855 12.9793 1.28588 12.9465 1.23077 12.8869C0.428539 12.0669 0.00292969 10.0959 0.00292969 8.98662C0.00292969 6.61307 1.93807 4.68084 4.32026 4.68084C4.45192 4.68084 4.58665 4.68681 4.72749 4.70171C5.33376 2.17014 7.61796 0.357178 10.2573 0.357178C12.318 0.357178 14.195 1.45449 15.2085 3.23763C15.5912 3.15712 15.974 3.11836 16.3445 3.11836C19.4615 3.11836 21.9968 5.64994 21.9968 8.76C21.9968 9.86924 21.6508 11.9118 20.9986 12.8541C20.9404 12.9376 20.8455 12.9853 20.7445 12.9853V12.9823Z" fill="white"/>
<path d="M10.9986 17.6429C10.8302 17.6429 10.6924 17.5087 10.6924 17.3447V7.76107C10.6924 7.59707 10.8302 7.46289 10.9986 7.46289C11.167 7.46289 11.3048 7.59707 11.3048 7.76107V17.3447C11.3048 17.5087 11.167 17.6429 10.9986 17.6429Z" fill="white"/>
<path d="M12.9416 10.6706C12.8467 10.6706 12.7518 10.6258 12.6906 10.5453L11.0616 8.32088L9.43266 10.5453C9.33468 10.6795 9.14484 10.7093 9.00705 10.6139C8.86927 10.5185 8.83865 10.3306 8.93663 10.1965L10.8136 7.63208C10.9299 7.47404 11.1963 7.47404 11.3127 7.63208L13.1897 10.1965C13.2876 10.3306 13.257 10.5155 13.1192 10.6139C13.0641 10.6527 13.0029 10.6706 12.9416 10.6706Z" fill="white"/>
</svg>
