<svg width="45" height="46" viewBox="0 0 45 46" fill="none" xmlns="http://www.w3.org/2000/svg">
<path fill-rule="evenodd" clip-rule="evenodd" d="M25.5 22.7246V13.7246C25.5 12.0671 24.1575 10.7246 22.5 10.7246C20.8425 10.7246 19.5 12.0671 19.5 13.7246V22.7246C19.5 24.3821 20.8425 25.7246 22.5 25.7246C24.1575 25.7246 25.5 24.3821 25.5 22.7246ZM22.5 7.72461C19.185 7.72461 16.5 10.4096 16.5 13.7246V22.7246C16.5 26.0396 19.185 28.7246 22.5 28.7246C25.815 28.7246 28.5 26.0396 28.5 22.7246V13.7246C28.5 10.4096 25.815 7.72461 22.5 7.72461Z" fill="white"/>
<path d="M33 22.7246V18.2246H30V22.7246C30 26.8646 26.64 30.2246 22.5 30.2246C18.36 30.2246 15 26.8646 15 22.7246V18.2246H12V22.7246C12 28.0121 15.915 32.3771 21 33.1046V34.7246H15V37.7246H21H24H30V34.7246H24V33.1046C29.085 32.3771 33 28.0121 33 22.7246Z" fill="white"/>
</svg>
