<svg width="45" height="46" viewBox="0 0 45 46" fill="none" xmlns="http://www.w3.org/2000/svg">
<mask id="mask0_114_16" style="mask-type:luminance" maskUnits="userSpaceOnUse" x="7" y="9" width="31" height="28">
<path d="M37.5 9.22461H7.5V36.2246H37.5V9.22461Z" fill="white"/>
</mask>
<g mask="url(#mask0_114_16)">
<path d="M17.8875 25.7246H34.5L37.5 12.2246H14.325L13.53 9.22461H7.5V12.2246H11.22L12 15.1796L14.7825 25.7246L15.18 27.2246L15.975 30.2246H16.5H19.0425H36V27.2246H18.285L17.8875 25.7246ZM33.7575 15.2246L32.0925 22.7246H17.0925L15.1125 15.2246H33.7575Z" fill="white"/>
<path d="M15.75 36.2246C16.9927 36.2246 18 35.2173 18 33.9746C18 32.7319 16.9927 31.7246 15.75 31.7246C14.5073 31.7246 13.5 32.7319 13.5 33.9746C13.5 35.2173 14.5073 36.2246 15.75 36.2246Z" fill="white"/>
<path d="M31.5 36.2246C32.7427 36.2246 33.75 35.2173 33.75 33.9746C33.75 32.7319 32.7427 31.7246 31.5 31.7246C30.2573 31.7246 29.25 32.7319 29.25 33.9746C29.25 35.2173 30.2573 36.2246 31.5 36.2246Z" fill="white"/>
</g>
</svg>
