<svg width="28" height="28" viewBox="0 0 28 28" fill="none" xmlns="http://www.w3.org/2000/svg">
<g clip-path="url(#clip0_106_110)">
<path fill-rule="evenodd" clip-rule="evenodd" d="M11.8664 18.5091C11.7431 18.5091 11.6403 18.5091 11.4113 18.3858C11.3056 18.2801 11.1998 18.1744 11.0765 18.1744L8.44536 15.5256C8.21631 15.3142 8.21631 15.0851 8.21631 14.6476C8.21631 14.4361 8.21631 14.1043 8.44536 13.8752C8.65385 13.6638 8.98862 13.5405 9.32339 13.5405C9.65815 13.5405 9.86665 13.6638 10.0957 13.8752L11.8664 15.7517L17.7983 9.80226C18.0273 9.59082 18.3592 9.48511 18.6939 9.48511C18.9053 9.48511 19.2372 9.59082 19.4486 9.80226C19.6777 9.92559 19.7834 10.3631 19.7834 10.5746C19.7834 10.9064 19.6777 11.1354 19.4486 11.3469L12.7474 18.1714C12.6241 18.1714 12.5184 18.2771 12.4126 18.3829C12.1836 18.5062 12.0779 18.5062 11.8694 18.5062L11.8664 18.5091Z" fill="#4B85F6"/>
<path d="M14.0015 0C6.28128 0 0 6.28128 0 14.0015C0 21.7217 6.28128 28.0029 14.0015 28.0029C21.7217 28.0029 28.0029 21.7217 28.0029 14.0015C28.0029 6.28128 21.7187 0 14.0015 0ZM14.0015 26.1324C7.31201 26.1324 1.86765 20.6909 1.86765 13.9985C1.86765 7.30613 7.30907 1.86765 14.0015 1.86765C20.6939 1.86765 26.1353 7.30907 26.1353 14.0015C26.1353 20.6939 20.6939 26.1353 14.0015 26.1353V26.1324Z" fill="#4B85F6"/>
</g>
<defs>
<clipPath id="clip0_106_110">
<rect width="28" height="28" fill="white"/>
</clipPath>
</defs>
</svg>
