<svg width="45" height="46" viewBox="0 0 45 46" fill="none" xmlns="http://www.w3.org/2000/svg">
<path fill-rule="evenodd" clip-rule="evenodd" d="M15 15.2246C15 11.0812 18.3566 7.72461 22.5 7.72461C26.6434 7.72461 30 11.0812 30 15.2246C30 16.5903 29.6315 17.8728 28.9918 18.9754C31.433 20.8951 33 23.8778 33 27.2246V37.7246H12V27.2246C12 23.8772 13.5676 20.8939 16.0096 18.9743C15.37 17.8728 15 16.5934 15 15.2246ZM22.5 10.7246C20.0134 10.7246 18 12.7381 18 15.2246C18 16.4179 18.4686 17.5024 19.2405 18.3197L20.5706 19.7279L18.8743 20.6632C16.5598 21.9393 15 24.4014 15 27.2246V34.7246H30V27.2246C30 24.4014 28.4402 21.9393 26.1257 20.6632L24.4234 19.7245L25.7631 18.3159C26.5295 17.51 27 16.4208 27 15.2246C27 12.7381 24.9866 10.7246 22.5 10.7246Z" fill="white"/>
</svg>
