<svg width="61" height="61" viewBox="0 0 61 61" fill="none" xmlns="http://www.w3.org/2000/svg">
<path d="M20.3125 30.1016C20.3125 27.2891 17.9688 24.9453 15.1562 24.9453C12.2856 24.9453 10 27.2891 10 30.1016C10 32.9141 12.2856 35.2578 15.1562 35.2578C17.9688 35.2578 20.3125 32.9141 20.3125 30.1016ZM36.1337 30.1016C36.1337 27.2891 33.79 24.9453 30.9775 24.9453C28.165 24.9453 25.8212 27.2891 25.8212 30.1016C25.8212 32.9141 28.165 35.2578 30.9775 35.2578C33.79 35.2578 36.1337 32.9141 36.1337 30.1016ZM52.0112 30.1016C52.0112 27.2891 49.7256 24.9453 46.855 24.9453C44.0425 24.9453 41.6987 27.2891 41.6987 30.1016C41.6987 32.9141 44.0425 35.2578 46.855 35.2578C49.7256 35.2578 52.0112 32.9141 52.0112 30.1016Z" fill="white"/>
</svg>
