<svg width="60" height="31" viewBox="0 0 60 31" fill="none" xmlns="http://www.w3.org/2000/svg">
<path fill-rule="evenodd" clip-rule="evenodd" d="M59.1745 18.3516L42.8245 1.08618C42.2575 0.492272 41.4715 0.00292969 40.6495 0.00292969H5.99951C2.68751 0.00292969 -0.000488281 2.98748 -0.000488281 6.28235V27.1736C-0.000488281 28.821 1.34351 30.1582 2.99951 30.1582C4.65851 30.1582 5.99951 28.821 5.99951 27.1736V9.26697C5.99951 7.61955 7.34351 5.9718 8.99951 5.9718H35.9995V18.2201C35.9995 21.518 38.6875 23.8788 41.9995 23.8788H53.9995V27.1736C53.9995 28.821 55.3435 30.1582 56.9995 30.1582C58.6585 30.1582 59.9995 28.821 59.9995 27.1736V20.4078C59.9995 19.6408 59.7055 18.9067 59.1745 18.3516Z" fill="white"/>
</svg>
