<svg width="45" height="46" viewBox="0 0 45 46" fill="none" xmlns="http://www.w3.org/2000/svg">
<path fill-rule="evenodd" clip-rule="evenodd" d="M30.75 18.2246V9.22461H33.75V18.2246H30.75Z" fill="white"/>
<path fill-rule="evenodd" clip-rule="evenodd" d="M27.75 12.2246H36.75V15.2246H27.75V12.2246Z" fill="white"/>
<path fill-rule="evenodd" clip-rule="evenodd" d="M12.25 16.6413C12.25 13.005 15.1131 9.97461 18.75 9.97461C22.3869 9.97461 25.25 13.005 25.25 16.6413C25.25 17.7913 24.9631 18.878 24.4584 19.8259C26.4761 21.5261 27.75 24.1058 27.75 26.9746V36.2246H9.75V26.9746C9.75 24.1053 11.0243 21.5252 13.0426 19.825C12.5381 18.8784 12.25 17.7941 12.25 16.6413ZM18.75 12.9746C16.8619 12.9746 15.25 14.5684 15.25 16.6413C15.25 17.628 15.625 18.517 16.2322 19.1814L17.4989 20.5672L15.8675 21.4967C14.0205 22.549 12.75 24.5977 12.75 26.9746V33.2246H24.75V26.9746C24.75 24.5977 23.4795 22.549 21.6325 21.4967L19.9953 20.5639L21.2713 19.1776C21.8731 18.5236 22.25 17.6308 22.25 16.6413C22.25 14.5684 20.6381 12.9746 18.75 12.9746Z" fill="white"/>
</svg>
