<svg width="45" height="46" viewBox="0 0 45 46" fill="none" xmlns="http://www.w3.org/2000/svg">
<path fill-rule="evenodd" clip-rule="evenodd" d="M31.0382 22.1771C34.4267 16.0121 30.3575 8.21961 23.2288 7.74711C22.9917 7.73211 22.7469 7.72461 22.5022 7.72461C22.2574 7.72461 22.0127 7.73211 21.7679 7.74711C14.6468 8.21961 10.5777 16.0121 13.9585 22.1771L22.5022 37.7246L31.0382 22.1771ZM22.501 31.4932L28.4091 20.7321C30.7763 16.4252 27.896 11.0662 23.0348 10.7408C22.865 10.7302 22.685 10.7246 22.5022 10.7246C22.3213 10.7246 22.1403 10.7301 21.9591 10.741C17.1095 11.068 14.2264 16.4248 16.5884 20.7336L16.5889 20.7346L22.501 31.4932Z" fill="white"/>
<path fill-rule="evenodd" clip-rule="evenodd" d="M22.5 18.9746C23.3285 18.9746 24 18.3031 24 17.4746C24 16.6462 23.3285 15.9746 22.5 15.9746C21.6716 15.9746 21 16.6462 21 17.4746C21 18.3031 21.6716 18.9746 22.5 18.9746ZM22.5 21.9746C24.9853 21.9746 27 19.9599 27 17.4746C27 14.9893 24.9853 12.9746 22.5 12.9746C20.0147 12.9746 18 14.9893 18 17.4746C18 19.9599 20.0147 21.9746 22.5 21.9746Z" fill="white"/>
</svg>
