<svg width="28" height="28" viewBox="0 0 28 28" fill="none" xmlns="http://www.w3.org/2000/svg">
<g clip-path="url(#clip0_1_760)">
<path fill-rule="evenodd" clip-rule="evenodd" d="M11.8666 18.5091C11.7433 18.5091 11.6405 18.5091 11.4115 18.3858C11.3057 18.2801 11.2 18.1744 11.0767 18.1744L8.44554 15.5256C8.21649 15.3142 8.21649 15.0851 8.21649 14.6476C8.21649 14.4361 8.21649 14.1043 8.44554 13.8752C8.65404 13.6638 8.9888 13.5405 9.32357 13.5405C9.65834 13.5405 9.86683 13.6638 10.0959 13.8752L11.8666 15.7517L17.7985 9.80226C18.0275 9.59082 18.3593 9.48511 18.6941 9.48511C18.9055 9.48511 19.2374 9.59082 19.4488 9.80226C19.6778 9.92559 19.7836 10.3631 19.7836 10.5746C19.7836 10.9064 19.6778 11.1354 19.4488 11.3469L12.7476 18.1714C12.6243 18.1714 12.5185 18.2771 12.4128 18.3829C12.1838 18.5062 12.0781 18.5062 11.8696 18.5062L11.8666 18.5091Z" fill="#333333"/>
<path d="M14.0015 0C6.28128 0 0 6.28128 0 14.0015C0 21.7217 6.28128 28.0029 14.0015 28.0029C21.7217 28.0029 28.0029 21.7217 28.0029 14.0015C28.0029 6.28128 21.7187 0 14.0015 0ZM14.0015 26.1324C7.31201 26.1324 1.86765 20.6909 1.86765 13.9985C1.86765 7.30613 7.30907 1.86765 14.0015 1.86765C20.6939 1.86765 26.1353 7.30907 26.1353 14.0015C26.1353 20.6939 20.6939 26.1353 14.0015 26.1353V26.1324Z" fill="#333333"/>
<g clip-path="url(#clip1_1_760)">
<g clip-path="url(#clip2_1_760)">
<path d="M14.0015 28.0029C21.7343 28.0029 28.0029 21.7343 28.0029 14.0015C28.0029 6.26867 21.7343 0 14.0015 0C6.26867 0 0 6.26867 0 14.0015C0 21.7343 6.26867 28.0029 14.0015 28.0029Z" fill="#4B85F6"/>
</g>
<path fill-rule="evenodd" clip-rule="evenodd" d="M11.8666 18.5091C11.7433 18.5091 11.6405 18.5091 11.4115 18.3858C11.3057 18.2801 11.2 18.1744 11.0767 18.1744L8.44554 15.5256C8.21649 15.3142 8.21649 15.0851 8.21649 14.6476C8.21649 14.4361 8.21649 14.1043 8.44554 13.8752C8.65404 13.6638 8.9888 13.5405 9.32357 13.5405C9.65834 13.5405 9.86683 13.6638 10.0959 13.8752L11.8666 15.7517L17.7985 9.80226C18.0275 9.59082 18.3593 9.48511 18.6941 9.48511C18.9055 9.48511 19.2374 9.59082 19.4488 9.80226C19.6778 9.92559 19.7836 10.3631 19.7836 10.5746C19.7836 10.9064 19.6778 11.1354 19.4488 11.3469L12.7476 18.1714C12.6243 18.1714 12.5185 18.2771 12.4128 18.3829C12.1838 18.5062 12.0781 18.5062 11.8696 18.5062L11.8666 18.5091Z" fill="#F7F6FF"/>
<path d="M14.0015 0C6.28128 0 0 6.28128 0 14.0015C0 21.7217 6.28128 28.0029 14.0015 28.0029C21.7217 28.0029 28.0029 21.7217 28.0029 14.0015C28.0029 6.28128 21.7187 0 14.0015 0ZM14.0015 26.1324C7.31201 26.1324 1.86765 20.6909 1.86765 13.9985C1.86765 7.30613 7.30907 1.86765 14.0015 1.86765C20.6939 1.86765 26.1353 7.30907 26.1353 14.0015C26.1353 20.6939 20.6939 26.1353 14.0015 26.1353V26.1324Z" fill="#4B85F6"/>
</g>
</g>
<defs>
<clipPath id="clip0_1_760">
<rect width="28" height="28" fill="white"/>
</clipPath>
<clipPath id="clip1_1_760">
<rect width="28" height="28" fill="white"/>
</clipPath>
<clipPath id="clip2_1_760">
<rect width="28" height="28" fill="white"/>
</clipPath>
</defs>
</svg>
