<svg width="139" height="139" viewBox="0 0 139 139" fill="none" xmlns="http://www.w3.org/2000/svg">
<rect width="139" height="139" rx="69.5" fill="#628CFF"/>
<path fill-rule="evenodd" clip-rule="evenodd" d="M96.2502 101H43.7527C40.9271 101 38.8406 98.2119 39.9063 95.6479C44.8511 83.7919 56.4677 76.9999 69.9994 76.9999C83.5352 76.9999 95.1518 83.7919 100.097 95.6479C101.162 98.2119 99.0758 101 96.2502 101ZM53.6667 52.9999C53.6667 44.1759 60.996 36.9999 69.9994 36.9999C79.0069 36.9999 86.3321 44.1759 86.3321 52.9999C86.3321 61.8239 79.0069 68.9999 69.9994 68.9999C60.996 68.9999 53.6667 61.8239 53.6667 52.9999ZM109.823 99.5439C106.854 86.1079 97.5691 76.1918 85.3481 71.6918C91.824 66.5838 95.601 58.3237 94.2127 49.2797C92.6039 38.7877 83.6944 30.3919 72.9393 29.1679C58.0929 27.4759 45.5003 38.7959 45.5003 52.9999C45.5003 60.5599 49.0772 67.2958 54.6548 71.6918C42.4297 76.1918 33.1487 86.1079 30.1761 99.5439C29.0981 104.428 33.116 109 38.2159 109H101.783C106.887 109 110.905 104.428 109.823 99.5439Z" fill="white"/>
</svg>
