<svg width="20" height="20" viewBox="0 0 20 20" fill="none" xmlns="http://www.w3.org/2000/svg">
<g clip-path="url(#clip0_104_242)">
<path d="M9.99895 20C15.5134 20 20 15.5134 20 9.99895C20 4.48453 15.5134 -0.00209657 9.99895 -0.00209705C4.48453 -0.00209753 -0.00209482 4.48453 -0.0020953 9.99895C-0.00209578 15.5134 4.48663 20 9.99895 20ZM9.99895 1.33403C14.7771 1.33403 18.666 5.22077 18.666 10.001C18.666 14.7813 14.7792 18.666 9.99895 18.666C5.21867 18.666 1.33194 14.7792 1.33194 9.99895C1.33194 5.21867 5.21867 1.33193 9.99895 1.33194L9.99895 1.33403Z" fill="#777777"/>
<path d="M9.66548 15.333L10.3325 15.333C10.7009 15.333 10.9995 15.0344 10.9995 14.666L10.9995 8.00002C10.9995 7.63164 10.7009 7.33301 10.3325 7.33301L9.66548 7.33301C9.2971 7.33301 8.99846 7.63164 8.99846 8.00002L8.99846 14.666C8.99846 15.0344 9.2971 15.333 9.66548 15.333Z" fill="#777777"/>
<path d="M9.66548 6.66602L10.3325 6.66602C10.7009 6.66602 10.9995 6.36738 10.9995 5.999L10.9995 5.33198C10.9995 4.9636 10.7009 4.66497 10.3325 4.66497L9.66548 4.66497C9.2971 4.66497 8.99846 4.9636 8.99846 5.33198L8.99846 5.999C8.99846 6.36738 9.2971 6.66602 9.66548 6.66602Z" fill="#777777"/>
</g>
<defs>
<clipPath id="clip0_104_242">
<rect width="20" height="20" fill="white" transform="translate(20 20) rotate(-180)"/>
</clipPath>
</defs>
</svg>
