<svg width="21" height="21" viewBox="0 0 21 21" fill="none" xmlns="http://www.w3.org/2000/svg">
<g clip-path="url(#clip0_106_729)">
<path fill-rule="evenodd" clip-rule="evenodd" d="M16.6796 16.6665C14.9812 18.3649 12.7505 19.3084 10.4726 19.2545C8.24182 19.2477 6.02456 18.4457 4.25883 16.68C2.49311 14.9143 1.75851 12.7644 1.69112 10.473C1.69112 8.24901 2.58072 5.96434 4.27905 4.26601C5.97738 2.56768 8.2553 1.69156 10.4726 1.69156C12.7707 1.74548 14.988 2.56768 16.6796 4.25927C18.3712 5.95087 19.254 8.23553 19.254 10.473C19.3079 12.7509 18.3779 14.9682 16.6796 16.6665ZM5.73476 9.83277C5.68085 9.88668 5.66737 10.008 5.55954 10.1226C5.50562 10.1765 5.50562 10.3113 5.50562 10.4191C5.49888 10.655 5.62019 10.8841 5.79542 11.0661C5.91673 11.1874 6.13913 11.302 6.38175 11.302H9.6571V14.6919C9.6571 14.9345 9.71101 15.103 9.89298 15.2782C10.0749 15.4534 10.2367 15.5141 10.54 15.568C10.7758 15.5747 11.005 15.4534 11.1263 15.3321C11.2948 15.1636 11.4161 14.9278 11.3622 14.7458V11.2346L14.8127 11.2885C15.0486 11.2952 15.2239 11.2346 15.3991 11.0526C15.5743 10.8706 15.635 10.7089 15.6889 10.4056C15.635 10.1091 15.5743 9.9406 15.3991 9.76537C15.2845 9.6508 15.0554 9.52949 14.8127 9.52949L11.3622 9.58341V6.31479C11.3622 6.07218 11.315 5.78238 11.1398 5.60716C11.0185 5.48585 10.7219 5.43193 10.486 5.43867C10.3715 5.43867 10.2502 5.43193 10.1963 5.48585C10.0749 5.49259 9.96037 5.60716 9.89972 5.67455C9.8458 5.72847 9.73123 5.84304 9.72449 5.96435C9.67058 6.01826 9.6234 6.20022 9.67732 6.25414V9.53623H6.39522C6.28065 9.53623 6.15935 9.52949 6.03804 9.6508C5.98412 9.70472 5.86281 9.7182 5.74824 9.82603L5.73476 9.83277ZM3.05248 3.04618C1.0037 5.1017 -0.06113 7.78399 -0.0004753 10.5404C-0.0004753 13.1149 0.990218 15.8578 3.03226 17.8998C5.0743 19.9419 7.83072 20.9461 10.4658 21C13.1616 21.0067 15.8506 19.9419 17.8994 17.8931C19.9482 15.8443 21.0063 13.162 20.9995 10.4663C21.0063 7.77051 19.9617 5.08148 17.9129 3.02596C15.8641 0.970442 13.1818 -0.0606861 10.54 -3.24249e-05C7.78354 -0.0674267 5.10126 0.9974 3.05922 3.03944L3.05248 3.04618Z" fill="white"/>
</g>
<defs>
<clipPath id="clip0_106_729">
<rect width="21" height="21" fill="white" transform="matrix(1 0 0 -1 0 21)"/>
</clipPath>
</defs>
</svg>
