<svg width="25" height="27" viewBox="0 0 25 27" fill="none" xmlns="http://www.w3.org/2000/svg">
<g clip-path="url(#clip0_106_740)">
<path d="M20.9687 17.9836C20.8185 17.9836 20.6684 17.9988 20.5259 18.0332V15.7114C20.5259 15.4559 20.2872 15.2462 20.0254 15.2462H17.6767C17.7306 15.067 17.7575 14.8802 17.7575 14.6896C17.7575 13.6145 16.8758 12.7414 15.79 12.7414H15.7592C14.6734 12.7414 13.7917 13.6145 13.7917 14.6896C13.7917 14.8802 13.8187 15.067 13.8726 15.2462H11.9975V12.5127C11.9975 12.3221 11.882 12.1543 11.7049 12.0819C11.5277 12.0132 11.3237 12.0552 11.1928 12.1886C10.9964 12.3907 10.7346 12.5012 10.4535 12.5012C9.88752 12.5012 9.42548 12.0437 9.42548 11.4833C9.42548 10.9229 9.88752 10.4654 10.4535 10.4654C10.7346 10.4654 10.9964 10.5759 11.1928 10.778C11.3275 10.9153 11.5277 10.9572 11.7049 10.8848C11.882 10.8123 11.9975 10.6446 11.9975 10.4539V7.26289C11.9975 7.00746 11.7857 6.79777 11.5277 6.79777H9.15211C9.20601 6.61858 9.23296 6.43177 9.23296 6.24115C9.23296 5.16603 8.35125 4.29297 7.26546 4.29297C6.17968 4.29297 5.29796 5.16603 5.29796 6.24115C5.29796 6.43177 5.32491 6.61858 5.37881 6.79777H3.00318C2.74521 6.79777 2.53344 7.00746 2.53344 7.26289V9.59232C2.37943 9.55419 2.22157 9.53513 2.05985 9.53513C0.97407 9.53513 0.0923513 10.4082 0.0923513 11.4833C0.0923513 12.5584 0.97407 13.4315 2.05985 13.4315C2.22157 13.4315 2.37943 13.4124 2.53344 13.3743V15.616C2.52574 15.6465 2.52574 15.677 2.52574 15.7075V18.0332C2.34478 17.9798 2.15611 17.9531 1.9636 17.9531C0.877813 17.9531 -0.00390625 18.8262 -0.00390625 19.9013C-0.00390625 19.9051 -0.00390625 19.9089 -0.00390625 19.9165C-0.00390625 19.9203 -0.00390625 19.928 -0.00390625 19.9318C-0.00390625 21.0069 0.877813 21.8799 1.9636 21.8799C2.15611 21.8799 2.34478 21.8533 2.52574 21.7999V24.1522C2.52574 24.4076 2.73751 24.6173 2.99548 24.6173H5.34031C5.30566 24.7584 5.29026 24.9071 5.29026 25.0557C5.29026 26.1309 6.17198 27.0039 7.25776 27.0039C8.34354 27.0039 9.22526 26.1309 9.22526 25.0557C9.22526 24.9071 9.20986 24.7584 9.17521 24.6173H11.4854C11.4854 24.6173 11.5123 24.6211 11.5277 24.6211H14.7543C15.0315 24.6211 15.2279 24.4153 15.2279 24.156C15.2279 24.0035 15.1547 23.8701 15.0392 23.7862C14.8583 23.5956 14.762 23.3516 14.762 23.0923C14.762 22.5357 15.2202 22.0782 15.7708 22.0744C16.3329 22.0782 16.7873 22.5357 16.7873 23.0923C16.7873 23.3706 16.6756 23.6299 16.4715 23.8243C16.3329 23.9539 16.306 24.156 16.3791 24.3314C16.4523 24.5068 16.6371 24.6211 16.8296 24.6211H20.0523C20.3103 24.6211 20.522 24.4114 20.522 24.156V21.8342C20.6645 21.8685 20.8147 21.8838 20.9648 21.8838C22.0506 21.8838 22.9323 21.0107 22.9323 19.9356C22.9323 18.8605 22.0506 17.9874 20.9648 17.9874L20.9687 17.9836ZM2.06756 12.5012C1.50156 12.5012 1.03953 12.0437 1.03953 11.4833C1.03953 10.9229 1.50156 10.4654 2.06756 10.4654C2.30627 10.4654 2.52959 10.5454 2.71441 10.6941C2.85302 10.8047 3.04938 10.8276 3.21109 10.7513C3.37281 10.6751 3.47677 10.5111 3.47677 10.3319V7.72802H6.18738C6.37604 7.72802 6.54545 7.61745 6.61861 7.44589C6.69177 7.27433 6.65711 7.07608 6.5262 6.94264C6.34139 6.75202 6.24128 6.5004 6.24128 6.24115C6.24128 5.68071 6.70332 5.22321 7.26931 5.22321C7.8353 5.22321 8.29734 5.68071 8.29734 6.24115C8.29734 6.50421 8.19723 6.75202 8.01242 6.94264C7.88151 7.07608 7.84686 7.27433 7.92001 7.44589C7.99317 7.61745 8.16258 7.72802 8.35125 7.72802H11.0619V9.63044C10.8693 9.56944 10.6653 9.53513 10.4535 9.53513C9.36772 9.53513 8.48601 10.4082 8.48601 11.4833C8.48601 12.5584 9.36772 13.4315 10.4535 13.4315C10.6614 13.4315 10.8693 13.401 11.0619 13.3362V15.2119H9.17521C9.20986 15.0709 9.22526 14.9222 9.22526 14.7735C9.22526 14.7697 9.22526 14.762 9.22526 14.7582C9.22526 14.7163 9.23296 14.6782 9.23296 14.6362C9.23296 13.5611 8.35125 12.6881 7.26546 12.6881C6.17968 12.6881 5.34416 13.5192 5.30181 14.5562C5.29411 14.6286 5.29026 14.701 5.29026 14.7735C5.29026 14.9222 5.30566 15.0709 5.34031 15.2119H3.47292V12.6347C3.47292 12.4555 3.36896 12.2916 3.20724 12.2153C3.04553 12.1391 2.84917 12.1619 2.71056 12.2725C2.52574 12.4212 2.30242 12.5012 2.06371 12.5012H2.06756ZM8.4475 23.6833C8.27039 23.6833 8.10483 23.7824 8.02782 23.9425C7.94696 24.1026 7.97007 24.2894 8.07787 24.4305C8.21649 24.6097 8.29349 24.8232 8.29349 25.0519C8.29349 25.6124 7.83146 26.0699 7.26546 26.0699C6.69947 26.0699 6.23743 25.6124 6.23743 25.0519C6.23743 24.827 6.31059 24.6135 6.45305 24.4305C6.56086 24.2894 6.58011 24.1026 6.5031 23.9425C6.42225 23.7824 6.26053 23.6833 6.08342 23.6833H3.47677V20.9993C3.47677 20.8125 3.36511 20.6447 3.19184 20.5723C3.01858 20.4998 2.81836 20.5341 2.6836 20.6638C2.49109 20.8468 2.24082 20.9459 1.97515 20.9459C1.40915 20.9459 0.947118 20.4884 0.947118 19.9508C0.947118 19.9394 0.947118 19.9089 0.947118 19.8975C0.947118 19.337 1.40915 18.8795 1.97515 18.8795C2.24082 18.8795 2.49109 18.9787 2.6836 19.1616C2.81836 19.2913 3.01858 19.3256 3.19184 19.2531C3.36511 19.1807 3.47677 19.013 3.47677 18.8262V16.1689H6.23743C6.23743 16.1689 6.24128 16.1689 6.24513 16.1689C6.5031 16.1689 6.71487 15.9592 6.71487 15.7037C6.71487 15.5512 6.64171 15.4178 6.5262 15.3339C6.35294 15.1509 6.25668 14.9145 6.25283 14.6629C6.31059 14.1559 6.74182 13.7556 7.26931 13.7556C7.8276 13.7556 8.28194 14.1978 8.29734 14.7506C8.27039 14.9832 8.17028 15.2005 7.99317 15.3682C7.85456 15.4979 7.8122 15.6999 7.88536 15.8753C7.95851 16.0507 8.12793 16.165 8.32044 16.165H11.0426V18.0332C10.9001 17.9988 10.75 17.9836 10.5998 17.9836C10.5806 17.9836 10.5613 17.9836 10.5421 17.9836C10.5151 17.9836 10.4843 17.976 10.4574 17.976C9.38313 17.976 8.50141 18.8414 8.48986 19.9127C8.50141 20.8468 9.18291 21.6283 10.08 21.8037C10.2456 21.8495 10.4189 21.8723 10.596 21.8723C10.7461 21.8723 10.8963 21.8571 11.0388 21.8228V23.6756H8.4552L8.4475 23.6833ZM20.9687 20.9497C20.7415 20.9497 20.5259 20.8773 20.3411 20.7362C20.1986 20.6295 20.0061 20.6104 19.8482 20.6866C19.6865 20.7629 19.5864 20.9268 19.5864 21.1022V23.6833H17.6343C17.6959 23.4926 17.7306 23.2906 17.7306 23.0809C17.7306 22.0172 16.8566 21.1441 15.7746 21.1327C14.7004 21.1441 13.8264 22.0172 13.8264 23.0809C13.8264 23.2868 13.8572 23.4926 13.9226 23.6833H11.9936V20.923C11.9936 20.7324 11.8781 20.5646 11.701 20.4922C11.5239 20.4198 11.3198 20.4655 11.1889 20.599C10.9926 20.801 10.7307 20.9116 10.4497 20.9116C10.3958 20.9116 10.3419 20.904 10.2879 20.8963C9.86826 20.7667 9.56024 20.3855 9.56024 19.928C9.56024 19.3828 9.99532 18.9405 10.5382 18.9138C10.7846 18.9367 11.0118 19.0358 11.1889 19.215C11.3237 19.3523 11.5239 19.379 11.701 19.3065C11.8781 19.2341 11.9936 19.0511 11.9936 18.8605V16.1689H14.6773C14.866 16.1689 15.0354 16.0583 15.1085 15.8867C15.1817 15.7152 15.147 15.5169 15.0161 15.3835C14.8313 15.1929 14.7312 14.945 14.7312 14.682C14.7312 14.1215 15.1932 13.6641 15.7284 13.6602C15.74 13.6602 15.7785 13.6602 15.79 13.6602C16.356 13.6602 16.8181 14.1177 16.8181 14.6782C16.8181 14.9412 16.7179 15.189 16.5331 15.3797C16.4022 15.5131 16.3676 15.7114 16.4407 15.8829C16.5139 16.0545 16.6833 16.165 16.872 16.165H19.5826V18.7461C19.5826 18.9215 19.6827 19.0854 19.8444 19.1616C20.0061 19.2417 20.1948 19.2227 20.3372 19.1121C20.5182 18.9748 20.7338 18.8986 20.9648 18.8986C21.5308 18.8986 21.9929 19.3561 21.9929 19.9165C21.9929 20.477 21.5308 20.9345 20.9648 20.9345L20.9687 20.9497Z" fill="#505051"/>
<path d="M24.9152 7.14072L23.5791 5.22304C23.7254 5.16586 23.8679 5.09342 24.0027 5.00192C24.8959 4.39192 25.1192 3.17574 24.5032 2.29125C24.1374 1.76512 23.5291 1.44869 22.8822 1.44869C22.4818 1.44869 22.0968 1.56687 21.7656 1.79181C21.6347 1.88331 21.5154 1.98625 21.4076 2.10443L20.0715 0.186755C20.0022 0.0838177 19.8828 0.022818 19.7596 -5.69341e-05C19.6364 -0.0229318 19.4978 0.0113805 19.3977 0.0838177L17.4648 1.40675C17.4071 1.22756 17.3224 1.05981 17.2107 0.903501C16.8449 0.377379 16.2366 0.0609428 15.5898 0.0609428C15.1893 0.0609428 14.8043 0.17913 14.4847 0.400254C14.4847 0.400254 14.477 0.407879 14.4693 0.411691C14.4616 0.415504 14.4578 0.419316 14.4501 0.423129C13.5568 1.03313 13.3335 2.24931 13.9495 3.1338C14.0573 3.29012 14.1882 3.43118 14.3384 3.54555L12.3786 4.88373C12.1668 5.02861 12.1168 5.31836 12.2631 5.52804L13.5991 7.44572C13.4528 7.50291 13.3104 7.57535 13.1756 7.66303C12.7444 7.96041 12.4518 8.40265 12.3593 8.91353C12.2631 9.4244 12.3786 9.9429 12.6751 10.3699C13.0409 10.896 13.6492 11.2125 14.2961 11.2125C14.6965 11.2125 15.0815 11.0943 15.4126 10.8693C15.5435 10.7778 15.6629 10.6749 15.7707 10.5567L17.1068 12.4744C17.1953 12.6002 17.3416 12.665 17.4918 12.665C17.5919 12.665 17.6959 12.6345 17.7806 12.5773L20.4334 10.7664C20.5913 10.6596 20.6683 10.469 20.6259 10.2822C20.5836 10.0954 20.4334 9.95433 20.2448 9.92383C19.9675 9.87809 19.725 9.72558 19.5671 9.49684C19.2475 9.03934 19.363 8.40647 19.8135 8.09003C20.2679 7.78503 20.9263 7.91466 21.2381 8.35309C21.396 8.58184 21.4538 8.86015 21.3999 9.13465C21.3614 9.32146 21.4538 9.50065 21.6116 9.6074C21.7695 9.71034 21.9889 9.70271 22.1468 9.59596L24.7997 7.78503C24.9036 7.71641 24.9729 7.60966 24.996 7.48766C25.0191 7.36566 24.9922 7.23985 24.919 7.14072H24.9152ZM22.2739 8.37978C22.2161 8.18534 22.1276 8.00234 22.0082 7.83078C21.6424 7.30466 21.0341 6.98822 20.3872 6.98822C19.9945 6.98822 19.6133 7.1026 19.2783 7.32753C18.4005 7.94134 18.181 9.1499 18.7894 10.0268C18.9087 10.1983 19.0512 10.347 19.2129 10.469L17.6073 11.5632L16.1134 9.42059C16.0248 9.29478 15.8785 9.21853 15.7284 9.21853C15.7053 9.21853 15.6783 9.21853 15.6552 9.22615C15.4781 9.25665 15.3318 9.38246 15.2779 9.55402C15.2124 9.77896 15.0738 9.96958 14.8774 10.103C14.4231 10.4118 13.757 10.2898 13.4451 9.84377C13.2873 9.61884 13.2295 9.34815 13.2796 9.08128C13.3296 8.8144 13.4798 8.58184 13.707 8.42553C13.9033 8.29209 14.1343 8.23109 14.3692 8.25015C14.5463 8.2654 14.7234 8.17391 14.812 8.01759C14.9005 7.86128 14.8928 7.67066 14.7927 7.52197L13.2988 5.37936L15.5281 3.85436C15.6822 3.74761 15.7592 3.5608 15.7207 3.38161C15.6822 3.19862 15.5397 3.05755 15.3549 3.01943C15.0931 2.96605 14.8697 2.81737 14.7196 2.60387C14.3962 2.14256 14.5155 1.50587 14.9699 1.19325C14.9814 1.18563 14.993 1.178 15.0045 1.17038C15.4588 0.861564 16.1249 0.983564 16.4368 1.42962C16.587 1.64312 16.6486 1.90618 16.6062 2.16543C16.5754 2.34843 16.6601 2.53143 16.818 2.63056C16.9759 2.72968 17.1799 2.72587 17.3339 2.61912L19.5633 1.09413L21.0572 3.23674C21.1611 3.38543 21.3382 3.46168 21.5192 3.43118C21.6963 3.40449 21.8426 3.27487 21.8965 3.1033C21.962 2.87837 22.1045 2.68774 22.297 2.55049C22.7513 2.24168 23.4174 2.36368 23.7293 2.80974C24.0527 3.27105 23.9334 3.90774 23.4675 4.22799C23.2711 4.36142 23.0401 4.42242 22.8052 4.40336C22.6242 4.38811 22.451 4.47961 22.3624 4.63592C22.2739 4.79223 22.2816 4.98286 22.3817 5.13154L23.8756 7.27416L22.27 8.36834L22.2739 8.37978Z" fill="#505051"/>
</g>
<defs>
<clipPath id="clip0_106_740">
<rect width="25" height="27" fill="white"/>
</clipPath>
</defs>
</svg>
