<svg width="31" height="20" viewBox="0 0 31 20" fill="none" xmlns="http://www.w3.org/2000/svg">
<g clip-path="url(#clip0_106_743)">
<path d="M15.4712 9.39099C12.799 9.39099 10.6228 7.28427 10.6228 4.69748C10.6228 2.11069 12.799 0 15.4712 0C18.1433 0 20.3195 2.10672 20.3195 4.69351C20.3195 7.2803 18.1433 9.38703 15.4712 9.38703V9.39099ZM15.4712 0.92442C13.3236 0.92442 11.5777 2.61456 11.5777 4.69351C11.5777 6.77247 13.3236 8.46261 15.4712 8.46261C17.6187 8.46261 19.3646 6.77247 19.3646 4.69351C19.3646 2.61456 17.6187 0.92442 15.4712 0.92442Z" fill="#505051"/>
<path d="M21.0369 20H9.87702C9.61473 20 9.40161 19.7937 9.40161 19.5397V13.6481C9.40161 10.9145 12.127 8.68872 15.4754 8.68872C18.8237 8.68872 21.5451 10.9145 21.5451 13.6481C21.5451 13.8107 21.5369 13.9734 21.5164 14.1361V19.5397C21.5164 19.7937 21.3033 20 21.041 20H21.0369ZM10.3524 19.0755H20.5573V14.1043C20.5573 14.1043 20.5573 14.0686 20.5573 14.0488C20.5737 13.9139 20.5819 13.779 20.5819 13.6441C20.5819 11.4183 18.2869 9.60917 15.4672 9.60917C12.6475 9.60917 10.3483 11.4183 10.3483 13.6441V19.0755H10.3524Z" fill="#505051"/>
<path d="M15.5288 16.5879C15.332 16.5879 15.1517 16.4689 15.082 16.2904L12.5492 9.81548C12.455 9.57743 12.582 9.31161 12.8279 9.22036C13.0738 9.1291 13.3484 9.24813 13.4427 9.49014L15.4837 14.7113L17.1517 9.51792C17.2296 9.2759 17.496 9.13704 17.7501 9.21242C18.0001 9.2878 18.1435 9.54569 18.0656 9.79167L15.9878 16.2666C15.9263 16.453 15.7501 16.584 15.5452 16.5919C15.5411 16.5919 15.537 16.5919 15.5288 16.5919V16.5879Z" fill="#505051"/>
<path d="M24.9262 10.2637C22.2541 10.2637 20.0779 8.15701 20.0779 5.57022C20.0779 2.98343 22.2541 0.876709 24.9262 0.876709C27.5984 0.876709 29.7746 2.98343 29.7746 5.57022C29.7746 8.15701 27.5984 10.2637 24.9262 10.2637ZM24.9262 1.80113C22.7787 1.80113 21.0328 3.49127 21.0328 5.57022C21.0328 7.64918 22.7787 9.33932 24.9262 9.33932C27.0738 9.33932 28.8197 7.64918 28.8197 5.57022C28.8197 3.49127 27.0738 1.80113 24.9262 1.80113Z" fill="#505051"/>
<path d="M30.4919 19.2977H21.1763C20.914 19.2977 20.7009 19.0914 20.7009 18.8375C20.7009 18.5835 20.914 18.3772 21.1763 18.3772H30.0124V14.9811C30.0124 14.9811 30.0124 14.9454 30.0124 14.9255C30.0288 14.7906 30.037 14.6558 30.037 14.5209C30.037 12.2951 27.7419 10.4859 24.9222 10.4859C23.4263 10.4859 22.0124 11.0017 21.037 11.8984C20.8444 12.0729 20.5452 12.069 20.3608 11.8825C20.1804 11.696 20.1845 11.4064 20.3772 11.2279C21.5288 10.1685 23.1845 9.56152 24.9222 9.56152C28.2706 9.56152 30.9919 11.7873 30.9919 14.5209C30.9919 14.6835 30.9837 14.8462 30.9632 15.0089V18.8375C30.9632 19.0914 30.7501 19.2977 30.4878 19.2977H30.4919Z" fill="#505051"/>
<path d="M24.9836 17.4608C24.7869 17.4608 24.6065 17.3417 24.5369 17.1632L22.0041 10.6883C21.9098 10.4502 22.0369 10.1844 22.2828 10.0932C22.5287 10.0019 22.8033 10.1249 22.8975 10.363L24.9385 15.5841L26.6065 10.3907C26.6844 10.1487 26.9508 10.0099 27.2049 10.0852C27.4549 10.1606 27.5983 10.4185 27.5205 10.6645L25.4426 17.1394C25.3811 17.3259 25.2049 17.4568 25 17.4647C24.9959 17.4647 24.9918 17.4647 24.9836 17.4647V17.4608Z" fill="#505051"/>
<path d="M6.06955 10.2637C3.39742 10.2637 1.22119 8.15701 1.22119 5.57022C1.22119 2.98343 3.39742 0.876709 6.06955 0.876709C8.74168 0.876709 10.9179 2.98343 10.9179 5.57022C10.9179 8.15701 8.74168 10.2637 6.06955 10.2637ZM6.06955 1.80113C3.92201 1.80113 2.17611 3.49127 2.17611 5.57022C2.17611 7.64918 3.92201 9.33932 6.06955 9.33932C8.21709 9.33932 9.96299 7.64918 9.96299 5.57022C9.96299 3.49127 8.21709 1.80113 6.06955 1.80113Z" fill="#505051"/>
<path d="M9.7418 19.2977H0.47541C0.213115 19.2977 0 19.0914 0 18.8375V14.5209C0 11.7873 2.72541 9.56152 6.06967 9.56152C7.93033 9.56152 9.65984 10.2439 10.8197 11.4302C11 11.6167 10.9918 11.9063 10.7992 12.0848C10.6066 12.2594 10.3074 12.2515 10.123 12.065C9.14344 11.0612 7.66393 10.4859 6.06557 10.4859C3.2459 10.4859 0.95082 12.2951 0.95082 14.5209V18.3772H9.7377C10 18.3772 10.2131 18.5835 10.2131 18.8375C10.2131 19.0914 10 19.2977 9.7377 19.2977H9.7418Z" fill="#505051"/>
<path d="M6.12715 17.4608C5.93042 17.4608 5.7501 17.3417 5.68042 17.1632L3.14764 10.6883C3.05338 10.4502 3.18042 10.1844 3.42633 10.0932C3.67223 10.0019 3.94682 10.1249 4.04108 10.363L6.08206 15.5841L7.7501 10.3907C7.82797 10.1487 8.09436 10.0099 8.34846 10.0852C8.59846 10.1606 8.7419 10.4185 8.66403 10.6645L6.58616 17.1394C6.52469 17.3259 6.34846 17.4568 6.14354 17.4647C6.13944 17.4647 6.13534 17.4647 6.12715 17.4647V17.4608Z" fill="#505051"/>
</g>
<defs>
<clipPath id="clip0_106_743">
<rect width="31" height="20" fill="white"/>
</clipPath>
</defs>
</svg>
