<svg width="45" height="46" viewBox="0 0 45 46" fill="none" xmlns="http://www.w3.org/2000/svg">
<path fill-rule="evenodd" clip-rule="evenodd" d="M27.48 26.4746H22.3125V23.4746H30.5625V24.9746C30.5625 26.7296 30.2475 29.3921 29.235 31.6796C28.215 33.9596 26.31 36.2246 23.055 36.2246V33.2246C24.6 33.2246 25.695 32.2346 26.4825 30.4571C27.0375 29.2121 27.345 27.7496 27.48 26.4746Z" fill="white"/>
<path fill-rule="evenodd" clip-rule="evenodd" d="M36.75 27.2246H35.25V22.7246H32.25V36.9746H35.25V30.2246H36.75V27.2246Z" fill="white"/>
<path d="M19.2976 21.9746H22.5L16.9726 9.22461H13.7774L8.25 21.9746H11.4524L12.4248 19.7246H18.3252L19.2976 21.9746ZM15.3713 12.9146L16.373 15.2246L17.0237 16.7246H13.7263L14.377 15.2246L15.3713 12.9146Z" fill="white"/>
<mask id="mask0_114_6" style="mask-type:luminance" maskUnits="userSpaceOnUse" x="9" y="9" width="27" height="27">
<path d="M35.67 9.97461H9.75V35.8946H35.67V9.97461Z" fill="white"/>
</mask>
<g mask="url(#mask0_114_6)">
<path d="M32.5125 19.1846H35.6775C34.3875 14.7446 30.9 11.2571 26.46 9.97461V13.1396C29.2425 14.2046 31.4475 16.4096 32.5125 19.1846Z" fill="white"/>
<path d="M12.915 26.6846H9.75C11.0325 31.1246 14.52 34.6121 18.96 35.8946V32.7296C16.185 31.6721 13.98 29.4671 12.915 26.6846Z" fill="white"/>
</g>
</svg>
